# xmcd CD database file
#
# Track frame offsets:
#	150
#	24468
#	44811
#	68944
#	90203
#	112086
#	130042
#	151239
#	173657
#	190514
#	214686
#
# Disc length: 3122 seconds
#
# Revision: 1
# Processed by: cddbd v1.5.2PL0 Copyright (c) Steve Scherf et al.
# Submitted via: CDex 1.70beta2
#
DISCID=8b0c300b
DTITLE=The Jazzinvaders - Blow!
DYEAR=2008
DGENRE=Jazz
TTITLE0=The Sun in Motion
TTITLE1=Day by Day
TTITLE2=Perugia
TTITLE3=Max Roach
TTITLE4=Art Mbekie
TTITLE5=Broad Minds
TTITLE6=Blow!
TTITLE7=Cancao Pequena
TTITLE8=Waltz of Glory
TTITLE9=Back to Edirne
TTITLE10=What The Bleep
EXTD=YEAR: 2008
EXTT0=
EXTT1=
EXTT2=
EXTT3=
EXTT4=
EXTT5=
EXTT6=
EXTT7=
EXTT8=
EXTT9=
EXTT10=
PLAYORDER=
